HIERARCHY
ROOT Hips
{
	OFFSET -89.023270 92.344872 461.057312
	CHANNELS 6 Xposition Yposition Zposition Zrotation Yrotation Xrotation 
	JOINT LeftUpLeg
	{
		OFFSET 0.103461 1.857843 10.548504
		CHANNELS 3 Zrotation Yrotation Xrotation
		JOINT LeftLeg
		{
			OFFSET 43.500004 -0.000027 -0.000002
			CHANNELS 3 Zrotation Yrotation Xrotation
			JOINT LeftFoot
			{
				OFFSET 42.372192 0.000011 -0.000013
				CHANNELS 3 Zrotation Yrotation Xrotation
				JOINT LeftToe
				{
					OFFSET 17.300003 0.000000 0.000006
					CHANNELS 3 Zrotation Yrotation Xrotation
					End Site
					{
						OFFSET 0.000000 0.000000 0.000000
					}
				}
			}
		}
	}
	JOINT RightUpLeg
	{
		OFFSET 0.103458 1.857838 -10.548502
		CHANNELS 3 Zrotation Yrotation Xrotation
		JOINT RightLeg
		{
			OFFSET 43.500038 -0.000031 0.000004
			CHANNELS 3 Zrotation Yrotation Xrotation
			JOINT RightFoot
			{
				OFFSET 42.372269 -0.000023 0.000023
				CHANNELS 3 Zrotation Yrotation Xrotation
				JOINT RightToe
				{
					OFFSET 17.299999 -0.000004 0.000006
					CHANNELS 3 Zrotation Yrotation Xrotation
					End Site
					{
						OFFSET 0.000000 0.000000 0.000000
					}
				}
			}
		}
	}
	JOINT Spine
	{
		OFFSET 6.901967 -2.603724 0.000002
		CHANNELS 3 Zrotation Yrotation Xrotation
		JOINT Spine1
		{
			OFFSET 12.588103 0.000000 -0.000002
			CHANNELS 3 Zrotation Yrotation Xrotation
			JOINT Spine2
			{
				OFFSET 12.343197 -0.000011 0.000001
				CHANNELS 3 Zrotation Yrotation Xrotation
				JOINT Neck
				{
					OFFSET 25.832895 0.000021 0.000000
					CHANNELS 3 Zrotation Yrotation Xrotation
					JOINT Head
					{
						OFFSET 11.766616 0.000003 -0.000004
						CHANNELS 3 Zrotation Yrotation Xrotation
						End Site
						{
							OFFSET 0.000000 0.000000 0.000000
						}
					}
				}
				JOINT LeftShoulder
				{
					OFFSET 19.745905 -1.480368 6.000099
					CHANNELS 3 Zrotation Yrotation Xrotation
					JOINT LeftArm
					{
						OFFSET 11.284123 -0.000031 -0.000016
						CHANNELS 3 Zrotation Yrotation Xrotation
						JOINT LeftForeArm
						{
							OFFSET 33.000053 0.000012 0.000029
							CHANNELS 3 Zrotation Yrotation Xrotation
							JOINT LeftHand
							{
								OFFSET 25.200005 0.000027 0.000003
								CHANNELS 3 Zrotation Yrotation Xrotation
								End Site
								{
									OFFSET 0.000000 0.000000 0.000000
								}
							}
						}
					}
				}
				JOINT RightShoulder
				{
					OFFSET 19.746098 -1.480366 -6.000079
					CHANNELS 3 Zrotation Yrotation Xrotation
					JOINT RightArm
					{
						OFFSET 11.284134 -0.000013 -0.000001
						CHANNELS 3 Zrotation Yrotation Xrotation
						JOINT RightForeArm
						{
							OFFSET 33.000088 0.000019 0.000003
							CHANNELS 3 Zrotation Yrotation Xrotation
							JOINT RightHand
							{
								OFFSET 25.199781 0.000131 0.000422
								CHANNELS 3 Zrotation Yrotation Xrotation
								End Site
								{
									OFFSET 0.000000 0.000000 0.000000
								}
							}
						}
					}
				}
			}
		}
	}
}
MOTION
Frames: 12
Frame Time: 0.033333
364.910309 87.725639 503.381989 116.465995 25.639892 -44.295286 115.085136 -13.742799 172.158388 -41.859876 -1.874848 -3.126981 80.962938 0.844617 -5.531142 21.454557 0.003096 0.000001 117.148591 7.509101 -170.917575 -38.553863 -0.836615 2.348476 83.525687 -0.066778 7.198443 21.454560 -0.003112 -0.000020 11.461302 1.129114 -0.487908 12.903849 2.305506 -0.846817 12.585492 2.300510 -0.860723 9.002833 4.081473 -1.594377 -51.635281 -3.078838 1.277986 57.578816 -75.933918 121.475078 -70.272203 49.656712 9.796905 -26.023955 -6.649798 0.616381 40.699786 -20.601560 -34.790709 68.984576 72.289083 -110.573113 -59.909707 -52.980005 7.776007 -32.624207 8.703254 -0.899778 20.794045 34.306141 -0.653451 
364.720215 87.658363 503.412201 116.478208 25.888000 -44.453794 114.855218 -13.784106 172.173810 -42.259231 -2.094664 -3.231706 81.218380 0.962474 -5.408308 21.454553 0.003095 -0.000000 116.830017 7.599393 -171.113642 -38.829547 -0.842594 2.283015 83.666457 -0.008366 7.294791 21.454562 -0.003110 -0.000018 11.442033 1.121634 -0.535959 12.864339 2.295805 -0.943884 12.545997 2.290220 -0.957728 9.367771 3.851598 -1.500062 -51.709255 -3.056072 1.311662 57.202291 -75.715973 121.855738 -69.983238 49.792533 9.915367 -26.177694 -6.565364 0.613210 40.999296 -20.845201 -35.065887 68.695276 72.250390 -110.858717 -60.090386 -53.034592 7.866704 -32.743261 8.728005 -0.903894 20.696892 34.603388 -0.724542 
364.537811 87.594002 503.422607 116.452307 26.019611 -44.628384 114.723532 -13.872695 172.183509 -42.658602 -2.288669 -3.308480 81.471897 1.060390 -5.281437 21.454553 0.003090 -0.000001 116.661448 7.654695 -171.260341 -39.061698 -0.826059 2.220804 83.804263 0.043722 7.375237 21.454558 -0.003108 -0.000018 11.439202 1.133261 -0.581933 12.857695 2.324096 -1.034339 12.539358 2.317944 -1.048353 9.761986 3.681355 -1.389082 -51.800571 -3.097537 1.423948 56.918285 -75.563325 122.142224 -69.700059 49.892326 10.176076 -26.295890 -6.570952 0.611757 41.239624 -20.908073 -35.406215 68.423223 72.324614 -111.119296 -60.430215 -53.008600 8.067401 -32.768263 8.769147 -0.907130 20.607184 34.769314 -0.892577 
364.369385 87.546211 503.421387 116.368706 26.059501 -44.841397 114.718928 -13.984501 172.137788 -42.997079 -2.417876 -3.348888 81.706288 1.121527 -5.192301 21.454555 0.003098 0.000002 116.646572 7.664794 -171.403146 -39.202089 -0.791606 2.173470 83.903956 0.084591 7.443404 21.454557 -0.003103 -0.000017 11.457405 1.151461 -0.615861 12.893340 2.364315 -1.099591 12.575010 2.357768 -1.113848 10.165340 3.538935 -1.274657 -51.915240 -3.128981 1.539522 56.670486 -75.499709 122.388138 -69.510528 49.943518 10.312045 -26.340170 -6.580981 0.610783 41.336803 -20.918998 -35.631529 68.235687 72.399302 -111.297338 -60.755386 -52.969094 8.348903 -32.752396 8.857669 -0.912784 20.502831 34.825670 -1.121873 
364.225586 87.523720 503.415314 116.274805 26.064249 -45.081598 114.779717 -14.101103 172.004039 -43.244626 -2.432812 -3.355585 81.896441 1.144380 -5.148384 21.454550 0.003093 0.000000 116.714778 7.597905 -171.508509 -39.220449 -0.809122 2.132623 83.939453 0.126662 7.514663 21.454558 -0.003120 -0.000019 11.481282 1.165437 -0.626041 12.940830 2.393505 -1.117839 12.622503 2.386841 -1.132265 10.522939 3.429605 -1.172051 -52.030148 -3.097745 1.603180 56.419661 -75.496943 122.633765 -69.431960 49.943593 10.153943 -26.333752 -6.537675 0.610508 41.224126 -20.896419 -35.585135 68.273943 72.439135 -111.257108 -60.895706 -52.929506 8.601096 -32.748428 8.940376 -0.918013 20.374733 34.759215 -1.371099 
364.102203 87.531242 503.406097 116.206284 26.061900 -45.331610 114.867772 -14.205506 171.802712 -43.390703 -2.327119 -3.348308 82.035360 1.143945 -5.143326 21.454550 0.003088 -0.000000 116.832640 7.453396 -171.535434 -39.101105 -0.907886 2.082365 83.902877 0.182963 7.592635 21.454560 -0.003112 -0.000019 11.505022 1.176992 -0.612529 12.988563 2.415253 -1.089091 12.670216 2.408770 -1.103657 10.714069 3.342535 -1.065325 -52.076518 -3.035856 1.655989 56.041036 -75.558913 123.000765 -69.503944 49.908944 9.803082 -26.303383 -6.503464 0.611162 40.950003 -20.770131 -35.376036 68.344690 72.500088 -111.183581 -60.972894 -52.888395 8.865695 -32.738278 8.974664 -0.919649 20.220939 34.554429 -1.657080 
363.976715 87.564087 503.399506 116.115893 26.086012 -45.577784 115.004731 -14.225295 171.555487 -43.436349 -2.136653 -3.361066 82.120478 1.145364 -5.173749 21.454550 0.003085 -0.000000 116.981060 7.333607 -171.546731 -38.902855 -1.023685 2.016177 83.825682 0.252180 7.665371 21.454558 -0.003110 -0.000018 11.536168 1.181751 -0.592030 13.051289 2.422671 -1.046993 12.732951 2.416434 -1.061599 10.734649 3.340413 -0.912124 -52.085250 -3.062638 1.846868 55.520012 -75.648723 123.505721 -69.687635 49.865138 9.427424 -26.271208 -6.539420 0.612972 40.616143 -20.581093 -35.184726 68.169796 72.627300 -111.345614 -61.176194 -52.862604 9.228107 -32.715220 8.997718 -0.921094 20.048181 34.264904 -1.982708 
363.839508 87.598907 503.396790 115.975902 26.145291 -45.811397 115.178873 -14.151996 171.341606 -43.442360 -1.958119 -3.423685 82.191648 1.176863 -5.223379 21.454553 0.003092 0.000000 117.117855 7.309695 -171.574871 -38.739802 -1.103451 1.925025 83.765549 0.332450 7.716360 21.454555 -0.003119 -0.000019 11.574136 1.178324 -0.578727 13.127563 2.414627 -1.020031 12.809208 2.408568 -1.034595 10.861083 3.441807 -0.696913 -52.239896 -3.200903 2.211510 55.043917 -75.694246 123.969095 -69.860315 49.847540 9.099771 -26.259680 -6.616931 0.617947 40.306848 -20.465448 -35.089236 67.767723 72.737014 -111.730905 -61.408189 -52.889993 9.600901 -32.742776 9.059907 -0.925764 19.891649 34.045044 -2.257325 
363.707489 87.610260 503.392609 115.827195 26.232619 -46.028109 115.308101 -14.068409 171.239044 -43.506659 -1.879282 -3.530205 82.288541 1.241810 -5.274762 21.454551 0.003093 0.000001 117.177373 7.356098 -171.602820 -38.698086 -1.137189 1.808878 83.761765 0.418106 7.731625 21.454560 -0.003105 -0.000017 11.607491 1.168437 -0.575279 13.194367 2.394809 -1.013573 12.876022 2.388757 -1.028008 11.281110 3.599403 -0.447438 -52.552080 -3.321213 2.607157 54.622969 -75.658634 124.382813 -69.989181 49.880451 8.810160 -26.265520 -6.689973 0.622902 40.131142 -20.498050 -35.123671 67.301843 72.751214 -112.185365 -61.546083 -52.978304 9.867094 -32.835147 9.171795 -0.935070 19.760191 34.019905 -2.410736 
363.595093 87.590607 503.385498 115.712311 26.339361 -46.231901 115.341500 -14.049999 171.276679 -43.671167 -1.947339 -3.665903 82.424476 1.334850 -5.312800 21.454557 0.003097 -0.000000 117.132184 7.419407 -171.655495 -38.784512 -1.113375 1.694705 83.812664 0.490379 7.712943 21.454557 -0.003104 -0.000016 11.631014 1.153354 -0.581266 13.241383 2.365584 -1.026715 12.923041 2.359471 -1.040979 11.950382 3.806685 -0.220569 -52.921375 -3.352659 2.910633 54.090027 -75.556195 124.909338 -70.138127 49.969442 8.535494 -26.257035 -6.756336 0.627176 40.184578 -20.662818 -35.301542 66.775515 72.728811 -112.701386 -61.720212 -53.092601 10.061294 -32.917434 9.313662 -0.946136 19.634569 34.206492 -2.514084 
363.497711 87.551376 503.377808 115.632111 26.452004 -46.421811 115.306953 -14.102797 171.417162 -43.900208 -2.149823 -3.810753 82.584910 1.443893 -5.324657 21.454551 0.003091 -0.000001 117.020374 7.479703 -171.776116 -38.945418 -1.023055 1.613978 83.891744 0.532534 7.678003 21.454560 -0.003121 -0.000017 11.649902 1.134911 -0.597687 13.278856 2.330881 -1.061176 12.960542 2.324549 -1.075227 12.639451 4.087062 -0.040391 -53.184279 -3.334850 3.126773 53.427416 -75.395979 125.565241 -70.300938 50.108481 8.299406 -26.239741 -6.835394 0.632149 40.461942 -20.919611 -35.575631 66.185025 72.757409 -113.276611 -62.037918 -53.191908 10.249694 -32.963497 9.459724 -0.956713 19.495479 34.499528 -2.671935 
363.409393 87.507263 503.367706 115.593602 26.555162 -46.583895 115.233406 -14.215194 171.574038 -44.150305 -2.417123 -3.923114 82.751615 1.539731 -5.301291 21.454553 0.003087 -0.000000 116.887418 7.518201 -171.921449 -39.117682 -0.912331 1.565691 83.973412 0.552069 7.646129 21.454558 -0.003099 -0.000015 11.664340 1.120746 -0.621965 13.307310 2.305529 -1.110913 12.989001 2.298910 -1.124807 13.268771 4.398734 0.083710 -53.395755 -3.349234 3.306053 52.879280 -75.182713 126.111342 -70.330984 50.282623 8.186656 -26.269544 -6.925250 0.638594 40.828914 -21.208289 -35.877693 65.713202 72.830813 -113.732615 -62.355891 -53.258397 10.429993 -33.030347 9.585529 -0.966395 19.317752 34.745077 -2.919057 
